<?xml version="1.0" encoding="utf-8"?>
<!-- Generator: Adobe Illustrator 21.1.0, SVG Export Plug-In . SVG Version: 6.00 Build 0)  -->
<svg version="1.1" id="Layer_1" xmlns="http://www.w3.org/2000/svg" xmlns:xlink="http://www.w3.org/1999/xlink" x="0px" y="0px"
	 viewBox="0 0 35.2 35.2" style="enable-background:new 0 0 35.2 35.2;" xml:space="preserve">
<style type="text/css">
	.st0{fill:#FFFFFF;}
	.st1{clip-path:url(#SVGID_3_);}
</style>
<g>
	<g>
		<path id="SVGID_2_" class="st0" d="M23.7,14c0.6-0.4,1.1-1,1.3-1.8c-0.6,0.4-1.2,0.6-1.9,0.8c-0.6-0.6-1.4-1-2.2-1
			c-1.7,0-3.1,1.4-3.1,3.2c0,0.3,0,0.5,0.1,0.7c-2.5-0.1-4.8-1.4-6.3-3.4c-0.3,0.5-0.4,1-0.4,1.6c0,1.1,0.5,2.1,1.4,2.7
			c-0.5,0-1-0.2-1.4-0.4l0,0c0,1.6,1.1,2.9,2.5,3.2c-0.3,0.1-0.5,0.1-0.8,0.1c-0.2,0-0.4,0-0.6-0.1c0.4,1.3,1.5,2.2,2.9,2.2
			c-1.1,0.9-2.4,1.4-3.8,1.4c-0.2,0-0.5,0-0.7,0c1.4,0.9,3,1.5,4.7,1.5c5.6,0,8.7-4.9,8.7-9.2c0-0.1,0-0.3,0-0.4
			c0.6-0.5,1.1-1,1.5-1.7C24.9,13.8,24.3,14,23.7,14z M17.6,35.2C7.9,35.2,0,27.3,0,17.6S7.9,0,17.6,0s17.6,7.9,17.6,17.6
			S27.3,35.2,17.6,35.2z"/>
	</g>
	<g>
		<g>
			<defs>
				<path id="SVGID_1_" d="M23.7,14c0.6-0.4,1.1-1,1.3-1.8c-0.6,0.4-1.2,0.6-1.9,0.8c-0.6-0.6-1.4-1-2.2-1c-1.7,0-3.1,1.4-3.1,3.2
					c0,0.3,0,0.5,0.1,0.7c-2.5-0.1-4.8-1.4-6.3-3.4c-0.3,0.5-0.4,1-0.4,1.6c0,1.1,0.5,2.1,1.4,2.7c-0.5,0-1-0.2-1.4-0.4l0,0
					c0,1.6,1.1,2.9,2.5,3.2c-0.3,0.1-0.5,0.1-0.8,0.1c-0.2,0-0.4,0-0.6-0.1c0.4,1.3,1.5,2.2,2.9,2.2c-1.1,0.9-2.4,1.4-3.8,1.4
					c-0.2,0-0.5,0-0.7,0c1.4,0.9,3,1.5,4.7,1.5c5.6,0,8.7-4.9,8.7-9.2c0-0.1,0-0.3,0-0.4c0.6-0.5,1.1-1,1.5-1.7
					C24.9,13.8,24.3,14,23.7,14z M17.6,35.2C7.9,35.2,0,27.3,0,17.6S7.9,0,17.6,0s17.6,7.9,17.6,17.6S27.3,35.2,17.6,35.2z"/>
			</defs>
			<use xlink:href="#SVGID_1_"  style="overflow:visible;fill:#FFFFFF;"/>
			<clipPath id="SVGID_3_">
				<use xlink:href="#SVGID_1_"  style="overflow:visible;"/>
			</clipPath>
			<g class="st1">
				<path class="st0" d="M17.6,36.1c-10.2,0-18.4-8.3-18.4-18.4S7.4-0.8,17.6-0.8S36,7.5,36,17.6S27.7,36.1,17.6,36.1z M17.6,0.8
					C8.3,0.8,0.8,8.3,0.8,17.6s7.5,16.8,16.8,16.8s16.8-7.5,16.8-16.8S26.8,0.8,17.6,0.8z M15.2,25.6c-1.8,0-3.6-0.6-5.2-1.6
					l-2.8-1.9l3.3,0.4c0.8,0.1,1.7,0,2.5-0.3c-0.8-0.5-1.4-1.3-1.7-2.2L11,19c-0.5-0.7-0.8-1.5-0.8-2.5v-1.4l0.2,0.1
					c-0.1-0.3-0.1-0.7-0.1-1c0-0.7,0.2-1.4,0.5-2l0.6-1.1l0.7,1c1.2,1.6,2.9,2.6,4.8,3c0.1-2.1,1.8-3.9,3.9-3.9
					c0.9,0,1.8,0.3,2.5,0.9c0.4-0.1,0.9-0.3,1.3-0.6l1.8-1.1l-0.6,2l1.8-0.8l-1.5,2.3c-0.4,0.6-0.9,1.2-1.4,1.6l0,0
					C24.7,20.5,21.1,25.6,15.2,25.6z M13.5,23.8c0.6,0.1,1.1,0.2,1.7,0.2c5.5,0,7.9-4.9,7.9-8.4c0-0.1,0-0.3,0-0.4v-0.3l-2.9,0.4
					l2.4-1.5l-0.2-0.2c-0.4-0.5-1-0.8-1.6-0.8c-1.2,0-2.3,1.1-2.3,2.4c0,0.2,0,0.4,0.1,0.6l0.2,1l-1.1-0.1c-2.2-0.1-4.3-1-5.9-2.6
					l0,0c0,0.8,0.4,1.6,1,2l2.2,1.5l-2.7-0.1c-0.1,0-0.2,0-0.3,0c0.3,0.6,0.9,1.1,1.6,1.2l3.1,0.7l-3,0.9c-0.1,0-0.2,0-0.3,0.1
					c0.4,0.4,0.9,0.7,1.5,0.7h2.2l-1.7,1.4C14.9,23.2,14.2,23.6,13.5,23.8z"/>
			</g>
		</g>
	</g>
</g>
</svg>
