<?xml version="1.0" encoding="utf-8"?>
<!-- Generator: Adobe Illustrator 21.1.0, SVG Export Plug-In . SVG Version: 6.00 Build 0)  -->
<svg version="1.1" id="Layer_1" xmlns="http://www.w3.org/2000/svg" xmlns:xlink="http://www.w3.org/1999/xlink" x="0px" y="0px"
	 viewBox="0 0 35.2 35.2" style="enable-background:new 0 0 35.2 35.2;" xml:space="preserve">
<style type="text/css">
	.st0{fill:#FFFFFF;}
</style>
<path id="Social-Icons_2_" class="st0" d="M17.6,35.2C7.9,35.2,0,27.3,0,17.6S7.9,0,17.6,0s17.6,7.9,17.6,17.6S27.3,35.2,17.6,35.2z
	 M22,10.4h-8.8c-1.5,0-2.8,1.2-2.8,2.8V22c0,1.5,1.3,2.8,2.8,2.8H22c1.5,0,2.8-1.2,2.8-2.8v-8.8C24.8,11.7,23.5,10.4,22,10.4z
	 M22.8,12.1h0.3v2.4h-2.4v-2.4L22.8,12.1z M15.5,16.1c0.5-0.6,1.2-1.1,2.1-1.1s1.6,0.4,2.1,1.1c0.3,0.4,0.5,0.9,0.5,1.5
	c0,1.4-1.1,2.5-2.5,2.5s-2.5-1.1-2.5-2.5C15,17.1,15.2,16.6,15.5,16.1L15.5,16.1z M23.4,22c0,0.8-0.6,1.4-1.4,1.4h-8.8
	c-0.8,0-1.4-0.6-1.4-1.4v-5.9H14c-0.2,0.5-0.3,1-0.3,1.5c0,2.2,1.8,3.9,3.9,3.9c2.2,0,3.9-1.8,3.9-3.9c0-0.5-0.1-1-0.3-1.5h2.2
	L23.4,22L23.4,22z"/>
</svg>
