<?xml version="1.0" encoding="utf-8"?>
<!-- Generator: Adobe Illustrator 21.1.0, SVG Export Plug-In . SVG Version: 6.00 Build 0)  -->
<svg version="1.1" id="Layer_1" xmlns="http://www.w3.org/2000/svg" xmlns:xlink="http://www.w3.org/1999/xlink" x="0px" y="0px"
	 viewBox="0 0 35.2 35.2" style="enable-background:new 0 0 35.2 35.2;" xml:space="preserve">
<style type="text/css">
	.st0{fill:#FFFFFF;}
</style>
<path class="st0" d="M15.7,16.5c-1.5,0-2.8-1.6-3.1-3.6c-0.3-1.9,0.7-3.4,2.2-3.4s2.8,1.6,3.1,3.5C18.2,15.1,17.2,16.6,15.7,16.5z
	 M35.2,17.6c0,9.7-7.9,17.6-17.6,17.6S0,27.3,0,17.6S7.9,0,17.6,0S35.2,7.9,35.2,17.6z M20.7,23.1c0-1.7-0.5-2.6-2-3.7
	c-0.5-0.4-1.5-1.3-1.5-1.8c0-0.6,0.2-0.9,1.1-1.6c0.9-0.7,1.6-1.8,1.6-3c0-1.4-0.6-2.8-1.8-3.3h1.8l1.3-0.9h-5.7
	c-2.5,0-4.9,1.9-4.9,4.2s1.7,4.1,4.3,4.1c0.2,0,0.4,0,0.5,0c-0.2,0.3-0.3,0.7-0.3,1.1c0,0.6,0.3,1.2,0.8,1.6c-0.3,0-0.6,0-1,0
	c-3.1,0-5.6,2-5.6,4.1s2.7,3.4,5.8,3.4C18.7,27.2,20.7,25.2,20.7,23.1z M27,16.7h-2.2v-2.2H23v2.2h-2.2v1.8H23v2.2h1.8v-2.2H27V16.7
	z M16.9,20.5c-0.4-0.1-0.9-0.2-1.4-0.2c-2.2,0-4.1,1.3-4.1,3s1.6,3.1,3.7,3.1c3.1,0,4.1-1.3,4.1-3c0-0.2,0-0.4-0.1-0.6
	C19,21.8,18.1,21.3,16.9,20.5z"/>
</svg>
