<?xml version="1.0" encoding="utf-8"?>
<!-- Generator: Adobe Illustrator 21.1.0, SVG Export Plug-In . SVG Version: 6.00 Build 0)  -->
<svg version="1.1" id="Layer_1" xmlns="http://www.w3.org/2000/svg" xmlns:xlink="http://www.w3.org/1999/xlink" x="0px" y="0px"
	 viewBox="0 0 35.2 35.2" style="enable-background:new 0 0 35.2 35.2;" xml:space="preserve">
<style type="text/css">
	.st0{fill:#FFFFFF;}
</style>
<g>
	<path class="st0" d="M17.6,0C7.9,0,0,7.9,0,17.6s7.9,17.6,17.6,17.6c9.8,0,17.6-7.9,17.6-17.6S27.3,0,17.6,0z M26.3,20.7
		c0,3-3,3-3,3H11.8c-3,0-3-3-3-3v-6.2c0-3,3-3,3-3h11.5c3,0,3,3,3,3V20.7z"/>
	<polygon class="st0" points="15.2,20.9 21,17.6 15.2,14.2 	"/>
</g>
</svg>
