<?xml version="1.0" encoding="utf-8"?>
<!-- Generator: Adobe Illustrator 21.1.0, SVG Export Plug-In . SVG Version: 6.00 Build 0)  -->
<svg version="1.1" id="Layer_1" xmlns="http://www.w3.org/2000/svg" xmlns:xlink="http://www.w3.org/1999/xlink" x="0px" y="0px"
	 viewBox="0 0 35.2 35.2" style="enable-background:new 0 0 35.2 35.2;" xml:space="preserve">
<style type="text/css">
	.st0{fill:#FFFFFF;}
</style>
<path class="st0" d="M20.4,19.1c0.3,0.4,0.5,0.9,0.5,1.6c0,0.7-0.2,1.2-0.6,1.5c-0.4,0.3-1,0.5-1.8,0.5h-2.7v-4.2h2.9
	C19.5,18.5,20,18.7,20.4,19.1z M19.7,16c0.4-0.3,0.6-0.8,0.6-1.4c0-0.7-0.2-1.2-0.6-1.5c-0.4-0.3-1.1-0.5-1.9-0.5h-2v3.8h2.1
	C18.7,16.5,19.3,16.4,19.7,16z M35.2,17.6c0,9.7-7.8,17.6-17.6,17.6C7.9,35.2,0,27.3,0,17.6S7.9,0,17.6,0S35.2,7.9,35.2,17.6z
	 M23.8,20.7c0-0.8-0.2-1.5-0.7-2.1c-0.4-0.6-1.1-1-2-1.2c0.7-0.3,1.2-0.7,1.6-1.2c0.4-0.5,0.5-1.1,0.5-1.8c0-1.3-0.5-2.3-1.4-3
	c-0.7-0.5-1.6-0.8-2.8-0.9V8.6h-1.6v1.9h-2V8.6h-1.6v1.9h-1h-1.5v1.8l1.5,0.3v10.4l-1.5,0.3V25h2.5v1.7h1.6V25h2v1.7h1.6v-1.7
	c1.4-0.1,2.6-0.4,3.4-1C23.4,23.2,23.8,22.1,23.8,20.7z"/>
</svg>
